<svg width="32" height="32" viewBox="0 0 200 200" fill="none" xmlns="http://www.w3.org/2000/svg">
  <defs>
    <linearGradient id="gradient" x1="0%" y1="0%" x2="100%" y2="100%">
      <stop offset="0%" style="stop-color:#0891b2;stop-opacity:1" />
      <stop offset="50%" style="stop-color:#06b6d4;stop-opacity:1" />
      <stop offset="100%" style="stop-color:#22d3ee;stop-opacity:1" />
    </linearGradient>
    <linearGradient id="fingerprint" x1="0%" y1="0%" x2="100%" y2="100%">
      <stop offset="0%" style="stop-color:#22d3ee;stop-opacity:1" />
      <stop offset="100%" style="stop-color:#06b6d4;stop-opacity:1" />
    </linearGradient>
  </defs>
  
  <!-- House outline -->
  <path
    d="M50 60 L100 30 L150 60 L150 140 C150 146 145 150 140 150 L130 150 L130 170 C130 175 126 180 120 180 L80 180 C74 180 70 175 70 170 L70 150 L60 150 C54 150 50 146 50 140 Z"
    fill="none"
    stroke="url(#gradient)"
    stroke-width="6"
    stroke-linecap="round"
    stroke-linejoin="round"
  />
  
  <!-- Fingerprint pattern -->
  <g fill="none" stroke="url(#fingerprint)" stroke-width="3" stroke-linecap="round">
    <path d="M85 80 C85 70 92 65 100 65 C108 65 115 70 115 80 C115 90 108 95 100 95 C92 95 85 90 85 80" />
    <path d="M90 80 C90 75 95 72 100 72 C105 72 110 75 110 80 C110 85 105 88 100 88 C95 88 90 85 90 80" />
  </g>
  
  <!-- Arrow -->
  <path
    d="M105 110 L120 120 L105 130 M85 120 L118 120"
    fill="none"
    stroke="url(#gradient)"
    stroke-width="4"
    stroke-linecap="round"
    stroke-linejoin="round"
  />
  
  <!-- Connection line -->
  <path
    d="M100 95 L100 110"
    fill="none"
    stroke="url(#fingerprint)"
    stroke-width="2"
    stroke-linecap="round"
  />
  
  <!-- Dots -->
  <circle cx="135" cy="170" r="4" fill="url(#fingerprint)" />
  <circle cx="145" cy="165" r="3" fill="url(#fingerprint)" />
</svg>