<svg xmlns="http://www.w3.org/2000/svg" width="1024" height="1024" viewBox="0 0 1024 1024" version="1.1"><path d="M 505 380.350 C 503.075 381.044, 491.150 388.988, 478.500 398.004 C 465.850 407.020, 438.850 426.281, 418.500 440.806 C 398.150 455.332, 380.445 468.180, 379.155 469.358 C 377.865 470.536, 376.128 472.812, 375.294 474.416 C 374.289 476.348, 373.936 478.986, 374.249 482.240 C 374.508 484.940, 375.603 488.353, 376.681 489.824 C 377.760 491.296, 380.185 493.287, 382.071 494.248 C 384.458 495.466, 387.847 495.997, 393.224 495.998 L 400.948 496 401.224 565.750 L 401.500 635.500 404.693 642.241 C 406.516 646.089, 409.958 651.054, 412.715 653.810 C 415.371 656.466, 420.033 659.817, 423.076 661.256 C 426.119 662.695, 431.509 664.375, 435.054 664.987 C 439.138 665.693, 452.800 665.991, 472.338 665.801 L 503.176 665.500 505.588 662.694 C 506.914 661.151, 508 658.768, 508 657.399 C 508 656.029, 506.895 653.805, 505.545 652.455 C 503.439 650.348, 502.162 650, 496.545 650 L 490 650 490 633 C 490 617.333, 490.157 615.843, 492 614 C 493.789 612.211, 495.333 612, 506.637 612 L 519.274 612 514.637 616.957 C 511.034 620.808, 510 622.660, 510 625.257 C 510 627.096, 510.540 629.140, 511.200 629.800 C 511.860 630.460, 513.566 631, 514.992 631 C 516.872 631, 521.280 627.767, 531.042 619.230 C 541.236 610.314, 544.576 606.804, 544.814 604.755 C 544.987 603.268, 544.762 601.427, 544.314 600.665 C 543.866 599.902, 537.832 594.769, 530.905 589.257 C 523.977 583.745, 517.309 578.701, 516.087 578.047 C 514.290 577.085, 513.401 577.162, 511.433 578.452 C 509.738 579.563, 509 580.969, 509 583.089 C 509 584.762, 509.458 586.987, 510.018 588.034 C 510.578 589.080, 513.118 591.525, 515.662 593.468 L 520.288 597 505.112 597 C 494.612 597, 488.944 597.417, 486.718 598.352 C 484.948 599.096, 482.058 601.186, 480.295 602.996 C 478.532 604.806, 476.395 608.328, 475.545 610.822 C 474.386 614.224, 474 619.680, 474 632.678 L 474 650 456.682 650 C 444.339 650, 437.946 649.577, 434.432 648.529 C 431.719 647.720, 427.853 645.695, 425.840 644.030 C 423.827 642.365, 421.015 638.664, 419.590 635.805 L 417 630.607 417 557.414 C 417 489.173, 416.882 484.080, 415.250 482.123 C 413.699 480.262, 412.267 479.994, 402.649 479.762 L 391.799 479.500 398.649 474.566 C 402.417 471.852, 417.425 461.064, 432 450.592 C 446.575 440.119, 470.153 423.321, 484.395 413.262 L 510.290 394.973 513.395 396.811 C 515.103 397.821, 530.900 408.758, 548.500 421.115 C 566.100 433.471, 591.868 451.663, 605.762 461.541 L 631.023 479.500 619.091 480 C 612.528 480.275, 606.785 480.875, 606.329 481.333 C 605.873 481.791, 605.275 515.991, 605 557.333 C 604.504 631.967, 604.485 632.528, 602.342 636.500 C 601.154 638.700, 598.904 641.686, 597.342 643.136 C 595.779 644.586, 592.925 646.594, 591 647.599 C 588.340 648.987, 584.618 649.517, 575.500 649.807 C 565.048 650.140, 563.210 650.457, 561.250 652.269 C 559.815 653.596, 559 655.512, 559 657.564 C 559 659.332, 559.788 661.746, 560.750 662.929 C 562.370 664.919, 563.425 665.079, 575 665.089 C 583.097 665.096, 589.170 664.589, 592.240 663.651 C 594.847 662.854, 598.965 661.038, 601.391 659.617 C 603.817 658.195, 607.641 654.943, 609.888 652.390 C 612.135 649.837, 615.053 645.442, 616.372 642.624 C 617.692 639.806, 619.272 635.115, 619.885 632.201 C 620.640 628.615, 621 605.734, 621 561.451 L 621 496 629.266 496 C 635.312 496, 638.467 495.512, 641.016 494.182 C 643.272 493.004, 645.326 490.723, 646.843 487.710 C 648.722 483.976, 649.047 482.210, 648.486 478.778 C 647.927 475.359, 646.754 473.534, 642.643 469.690 C 639.814 467.044, 624 455.314, 607.500 443.624 C 591 431.934, 564.450 413.137, 548.500 401.853 C 532.550 390.570, 517.970 380.812, 516.101 380.169 C 514.231 379.526, 511.756 379.020, 510.601 379.044 C 509.445 379.068, 506.925 379.656, 505 380.350 M 497.105 447.583 C 494.137 448.381, 489.430 450.263, 486.645 451.767 C 483.859 453.270, 479.034 456.982, 475.922 460.017 C 472.712 463.147, 468.906 468.225, 467.123 471.756 C 465.395 475.179, 463.317 480.797, 462.506 484.240 C 461.694 487.683, 461.023 494.197, 461.015 498.715 C 461.002 505.688, 461.279 507.079, 462.847 507.918 C 464.117 508.598, 465.053 508.547, 465.847 507.753 C 466.481 507.119, 467.009 504.328, 467.020 501.550 C 467.031 498.773, 467.493 493.350, 468.047 489.500 C 468.601 485.650, 470.330 479.800, 471.888 476.500 C 473.446 473.200, 476.533 468.475, 478.748 466 C 480.963 463.525, 485.189 460.057, 488.138 458.292 C 491.087 456.528, 496.182 454.391, 499.460 453.542 C 502.738 452.694, 507.913 452.005, 510.960 452.012 C 514.007 452.018, 518.860 452.652, 521.744 453.420 C 524.628 454.188, 529.128 455.845, 531.744 457.103 C 534.360 458.361, 539.005 461.890, 542.067 464.945 C 545.169 468.040, 548.820 473.014, 550.312 476.178 C 551.785 479.300, 553.416 484.025, 553.937 486.678 C 554.457 489.330, 555.166 494.502, 555.513 498.170 C 555.965 502.964, 556.594 505.014, 557.749 505.457 C 558.632 505.796, 559.997 505.432, 560.782 504.647 C 561.979 503.450, 562.032 501.555, 561.109 492.860 C 560.176 484.067, 559.406 481.270, 556.016 474.369 C 553.411 469.068, 550.127 464.344, 546.576 460.794 C 543.581 457.799, 538.514 453.963, 535.316 452.270 C 532.117 450.576, 527.056 448.473, 524.068 447.595 C 520.940 446.676, 515.216 446.028, 510.568 446.066 C 506.131 446.102, 500.072 446.785, 497.105 447.583 M 499.005 461.610 C 496.533 462.507, 492.642 464.526, 490.359 466.097 C 488.076 467.668, 484.809 470.855, 483.100 473.179 C 481.391 475.503, 479.066 479.881, 477.933 482.909 C 476.470 486.818, 475.753 491.582, 475.459 499.349 C 475.163 507.141, 474.582 510.989, 473.437 512.736 C 472.554 514.084, 469.844 516.066, 467.416 517.140 C 463.926 518.684, 463 519.608, 463 521.547 C 463 523.225, 463.553 523.993, 464.750 523.978 C 465.712 523.966, 468.319 523.130, 470.541 522.120 C 472.764 521.111, 475.802 518.836, 477.292 517.065 C 478.782 515.295, 480.199 512.868, 480.441 511.673 C 480.683 510.478, 481.102 505, 481.372 499.500 C 481.642 494, 482.593 487.415, 483.486 484.867 C 484.378 482.318, 486.697 478.378, 488.638 476.110 C 490.580 473.842, 494.215 470.786, 496.717 469.320 C 500.265 467.241, 502.944 466.560, 508.883 466.229 C 514.922 465.892, 517.648 466.238, 522.043 467.896 C 525.180 469.081, 529.467 471.796, 531.922 474.155 C 534.307 476.447, 537.436 480.837, 538.876 483.911 C 541.047 488.545, 541.553 491.243, 541.837 499.702 C 542.078 506.876, 542.594 510.248, 543.577 511.064 C 544.346 511.702, 545.712 511.941, 546.612 511.595 C 548.032 511.050, 548.193 509.467, 547.819 499.696 C 547.435 489.671, 547.043 487.689, 544.269 481.762 C 542.554 478.097, 539.180 473.128, 536.771 470.718 C 534.362 468.309, 529.752 465.047, 526.526 463.469 C 521.729 461.122, 519.100 460.543, 512.081 460.290 C 505.992 460.069, 502.195 460.453, 499.005 461.610 M 503.500 475.061 C 501.850 475.545, 498.871 477.289, 496.880 478.936 C 494.890 480.583, 492.438 483.634, 491.432 485.715 C 490.114 488.441, 489.421 492.997, 488.952 502 C 488.439 511.872, 487.856 515.373, 486.180 518.653 C 485.013 520.938, 482.357 524.210, 480.279 525.925 C 478.201 527.639, 474.250 529.882, 471.500 530.907 C 468.750 531.933, 466.388 533.386, 466.251 534.136 C 466.114 534.886, 466.423 536.154, 466.936 536.953 C 467.744 538.212, 468.644 538.162, 473.644 536.586 C 478.214 535.146, 480.688 533.485, 485.496 528.633 C 489.328 524.765, 492.038 521.022, 492.833 518.500 C 493.527 516.300, 494.366 509.178, 494.698 502.674 C 495.196 492.921, 495.673 490.297, 497.424 487.698 C 498.592 485.965, 501.112 483.485, 503.024 482.185 C 505.898 480.232, 507.464 479.890, 512.065 480.212 C 515.836 480.475, 518.695 481.359, 520.931 482.951 C 522.765 484.257, 525.287 487.567, 526.606 490.401 C 528.526 494.525, 528.982 497.157, 528.990 504.162 C 528.996 508.926, 528.353 516.203, 527.563 520.333 C 526.773 524.464, 524.905 530.916, 523.412 534.671 C 521.920 538.427, 519.245 543.750, 517.468 546.500 C 515.692 549.250, 512.160 553.506, 509.619 555.958 C 507.079 558.410, 505 561.237, 505 562.240 C 505 563.242, 505.680 564.324, 506.511 564.643 C 507.401 564.984, 509.838 563.734, 512.440 561.602 C 514.870 559.611, 518.942 554.848, 521.489 551.017 C 524.035 547.186, 527.271 541.228, 528.679 537.776 C 530.088 534.324, 532.080 527.450, 533.107 522.500 C 534.134 517.550, 534.980 509.644, 534.987 504.932 C 534.995 499.929, 534.330 494.103, 533.389 490.932 C 532.230 487.023, 530.478 484.200, 527.139 480.863 C 524.271 477.996, 520.973 475.803, 518.500 475.118 C 516.300 474.509, 512.700 474.049, 510.500 474.096 C 508.300 474.142, 505.150 474.577, 503.500 475.061 M 504.964 490.036 C 503.843 491.157, 503.195 492.507, 503.523 493.036 C 503.850 493.566, 505.805 494, 507.868 494 C 509.930 494, 512.491 494.641, 513.559 495.425 C 515.263 496.676, 515.490 498.052, 515.421 506.675 C 515.371 512.918, 514.699 518.676, 513.579 522.470 C 512.610 525.753, 510.904 530.253, 509.789 532.470 C 508.674 534.686, 506.170 538.609, 504.224 541.187 C 502.278 543.764, 497.607 548.170, 493.843 550.977 C 490.079 553.785, 487 556.458, 487 556.919 C 487 557.379, 487.710 558.344, 488.577 559.064 C 489.893 560.156, 490.760 560.052, 493.827 558.436 C 495.847 557.371, 500.699 553.323, 504.608 549.440 C 509.490 544.592, 512.666 540.363, 514.748 535.940 C 516.416 532.398, 518.570 526.350, 519.536 522.500 C 520.540 518.497, 521.330 511.433, 521.380 506 C 521.448 498.734, 521.059 495.743, 519.724 493.280 C 518.764 491.508, 517.114 489.596, 516.055 489.030 C 514.997 488.463, 512.527 488, 510.566 488 C 508.312 488, 506.251 488.749, 504.964 490.036 M 503.396 500.765 C 502.789 501.169, 502.045 505.100, 501.743 509.500 C 501.439 513.919, 500.240 520.028, 499.063 523.147 C 497.892 526.253, 495.159 530.810, 492.991 533.273 C 490.506 536.096, 486.055 539.309, 480.951 541.965 C 475.079 545.020, 473.011 546.587, 473.427 547.670 C 473.742 548.492, 474 549.352, 474 549.582 C 474 549.812, 475.175 550, 476.610 550 C 478.046 550, 481.858 548.594, 485.083 546.875 C 488.308 545.156, 493.233 541.332, 496.027 538.378 C 498.822 535.423, 502.244 530.525, 503.631 527.494 C 505.019 524.463, 506.561 519.175, 507.057 515.742 C 507.554 512.309, 507.969 507.636, 507.980 505.357 C 507.994 502.488, 507.514 501.027, 506.418 500.607 C 505.548 500.273, 504.761 500.007, 504.668 500.015 C 504.576 500.024, 504.003 500.361, 503.396 500.765 M 555.641 513.772 C 555.339 514.260, 554.631 517.548, 554.067 521.079 C 553.503 524.611, 552.348 529.832, 551.502 532.683 C 550.655 535.533, 549.098 539.795, 548.042 542.154 C 546.656 545.250, 546.418 546.798, 547.184 547.721 C 547.767 548.425, 549.034 549, 549.999 549 C 551.143 549, 552.478 547.316, 553.836 544.159 C 554.982 541.496, 556.823 535.984, 557.928 531.909 C 559.033 527.834, 560.063 522.025, 560.218 519 C 560.473 514.025, 560.294 513.471, 558.344 513.193 C 557.159 513.024, 555.942 513.285, 555.641 513.772 M 541.649 520.759 C 541.391 521.177, 540.424 524.435, 539.500 528 C 538.576 531.565, 536.798 536.997, 535.549 540.072 C 534.299 543.147, 531.640 548.223, 529.639 551.351 C 527.637 554.479, 526 557.464, 526 557.984 C 526 558.504, 526.909 559.416, 528.021 560.011 C 529.132 560.606, 530.500 560.809, 531.061 560.462 C 531.622 560.116, 533.229 558.014, 534.632 555.791 C 536.035 553.569, 538.749 548.094, 540.662 543.625 C 542.576 539.156, 544.804 532.645, 545.615 529.155 C 546.743 524.294, 546.815 522.482, 545.921 521.405 C 545.280 520.632, 544.162 520, 543.437 520 C 542.711 520, 541.907 520.342, 541.649 520.759 M 525.387 644.284 C 522.558 646.877, 521.695 648.527, 521.290 652.119 C 520.935 655.266, 521.296 657.672, 522.460 659.922 C 523.565 662.060, 525.677 663.854, 528.620 665.156 C 531.764 666.547, 534.048 666.929, 536.285 666.437 C 538.037 666.053, 540.451 665.095, 541.649 664.310 C 542.847 663.525, 544.541 661.379, 545.414 659.540 C 546.286 657.702, 546.998 654.916, 546.996 653.349 C 546.994 651.782, 546.114 649.059, 545.040 647.299 C 543.967 645.538, 541.741 643.400, 540.094 642.549 C 538.447 641.697, 535.270 641, 533.035 641 C 529.835 641, 528.208 641.698, 525.387 644.284" stroke="none" fill="#2382a3" fill-rule="evenodd"/><path d="M 0 512.001 L 0 1024.002 512.250 1023.751 L 1024.500 1023.500 1024.751 511.750 L 1025.002 0 512.501 0 L 0 0 0 512.001 M 0.496 512.500 C 0.496 794.100, 0.610 909.151, 0.750 768.168 C 0.890 627.186, 0.890 396.786, 0.750 256.168 C 0.610 115.551, 0.496 230.900, 0.496 512.500 M 505 380.350 C 503.075 381.044, 491.150 388.988, 478.500 398.004 C 465.850 407.020, 438.850 426.281, 418.500 440.806 C 398.150 455.332, 380.445 468.180, 379.155 469.358 C 377.865 470.536, 376.128 472.812, 375.294 474.416 C 374.289 476.348, 373.936 478.986, 374.249 482.240 C 374.508 484.940, 375.603 488.353, 376.681 489.824 C 377.760 491.296, 380.185 493.287, 382.071 494.248 C 384.458 495.466, 387.847 495.997, 393.224 495.998 L 400.948 496 401.224 565.750 L 401.500 635.500 404.693 642.241 C 406.516 646.089, 409.958 651.054, 412.715 653.810 C 415.371 656.466, 420.033 659.817, 423.076 661.256 C 426.119 662.695, 431.509 664.375, 435.054 664.987 C 439.138 665.693, 452.800 665.991, 472.338 665.801 L 503.176 665.500 505.588 662.694 C 506.914 661.151, 508 658.768, 508 657.399 C 508 656.029, 506.895 653.805, 505.545 652.455 C 503.439 650.348, 502.162 650, 496.545 650 L 490 650 490 633 C 490 617.333, 490.157 615.843, 492 614 C 493.789 612.211, 495.333 612, 506.637 612 L 519.274 612 514.637 616.957 C 511.034 620.808, 510 622.660, 510 625.257 C 510 627.096, 510.540 629.140, 511.200 629.800 C 511.860 630.460, 513.566 631, 514.992 631 C 516.872 631, 521.280 627.767, 531.042 619.230 C 541.236 610.314, 544.576 606.804, 544.814 604.755 C 544.987 603.268, 544.762 601.427, 544.314 600.665 C 543.866 599.902, 537.832 594.769, 530.905 589.257 C 523.977 583.745, 517.309 578.701, 516.087 578.047 C 514.290 577.085, 513.401 577.162, 511.433 578.452 C 509.738 579.563, 509 580.969, 509 583.089 C 509 584.762, 509.458 586.987, 510.018 588.034 C 510.578 589.080, 513.118 591.525, 515.662 593.468 L 520.288 597 505.112 597 C 494.612 597, 488.944 597.417, 486.718 598.352 C 484.948 599.096, 482.058 601.186, 480.295 602.996 C 478.532 604.806, 476.395 608.328, 475.545 610.822 C 474.386 614.224, 474 619.680, 474 632.678 L 474 650 456.682 650 C 444.339 650, 437.946 649.577, 434.432 648.529 C 431.719 647.720, 427.853 645.695, 425.840 644.030 C 423.827 642.365, 421.015 638.664, 419.590 635.805 L 417 630.607 417 557.414 C 417 489.173, 416.882 484.080, 415.250 482.123 C 413.699 480.262, 412.267 479.994, 402.649 479.762 L 391.799 479.500 398.649 474.566 C 402.417 471.852, 417.425 461.064, 432 450.592 C 446.575 440.119, 470.153 423.321, 484.395 413.262 L 510.290 394.973 513.395 396.811 C 515.103 397.821, 530.900 408.758, 548.500 421.115 C 566.100 433.471, 591.868 451.663, 605.762 461.541 L 631.023 479.500 619.091 480 C 612.528 480.275, 606.785 480.875, 606.329 481.333 C 605.873 481.791, 605.275 515.991, 605 557.333 C 604.504 631.967, 604.485 632.528, 602.342 636.500 C 601.154 638.700, 598.904 641.686, 597.342 643.136 C 595.779 644.586, 592.925 646.594, 591 647.599 C 588.340 648.987, 584.618 649.517, 575.500 649.807 C 565.048 650.140, 563.210 650.457, 561.250 652.269 C 559.815 653.596, 559 655.512, 559 657.564 C 559 659.332, 559.788 661.746, 560.750 662.929 C 562.370 664.919, 563.425 665.079, 575 665.089 C 583.097 665.096, 589.170 664.589, 592.240 663.651 C 594.847 662.854, 598.965 661.038, 601.391 659.617 C 603.817 658.195, 607.641 654.943, 609.888 652.390 C 612.135 649.837, 615.053 645.442, 616.372 642.624 C 617.692 639.806, 619.272 635.115, 619.885 632.201 C 620.640 628.615, 621 605.734, 621 561.451 L 621 496 629.266 496 C 635.312 496, 638.467 495.512, 641.016 494.182 C 643.272 493.004, 645.326 490.723, 646.843 487.710 C 648.722 483.976, 649.047 482.210, 648.486 478.778 C 647.927 475.359, 646.754 473.534, 642.643 469.690 C 639.814 467.044, 624 455.314, 607.500 443.624 C 591 431.934, 564.450 413.137, 548.500 401.853 C 532.550 390.570, 517.970 380.812, 516.101 380.169 C 514.231 379.526, 511.756 379.020, 510.601 379.044 C 509.445 379.068, 506.925 379.656, 505 380.350 M 497.105 447.583 C 494.137 448.381, 489.430 450.263, 486.645 451.767 C 483.859 453.270, 479.034 456.982, 475.922 460.017 C 472.712 463.147, 468.906 468.225, 467.123 471.756 C 465.395 475.179, 463.317 480.797, 462.506 484.240 C 461.694 487.683, 461.023 494.197, 461.015 498.715 C 461.002 505.688, 461.279 507.079, 462.847 507.918 C 464.117 508.598, 465.053 508.547, 465.847 507.753 C 466.481 507.119, 467.009 504.328, 467.020 501.550 C 467.031 498.773, 467.493 493.350, 468.047 489.500 C 468.601 485.650, 470.330 479.800, 471.888 476.500 C 473.446 473.200, 476.533 468.475, 478.748 466 C 480.963 463.525, 485.189 460.057, 488.138 458.292 C 491.087 456.528, 496.182 454.391, 499.460 453.542 C 502.738 452.694, 507.913 452.005, 510.960 452.012 C 514.007 452.018, 518.860 452.652, 521.744 453.420 C 524.628 454.188, 529.128 455.845, 531.744 457.103 C 534.360 458.361, 539.005 461.890, 542.067 464.945 C 545.169 468.040, 548.820 473.014, 550.312 476.178 C 551.785 479.300, 553.416 484.025, 553.937 486.678 C 554.457 489.330, 555.166 494.502, 555.513 498.170 C 555.965 502.964, 556.594 505.014, 557.749 505.457 C 558.632 505.796, 559.997 505.432, 560.782 504.647 C 561.979 503.450, 562.032 501.555, 561.109 492.860 C 560.176 484.067, 559.406 481.270, 556.016 474.369 C 553.411 469.068, 550.127 464.344, 546.576 460.794 C 543.581 457.799, 538.514 453.963, 535.316 452.270 C 532.117 450.576, 527.056 448.473, 524.068 447.595 C 520.940 446.676, 515.216 446.028, 510.568 446.066 C 506.131 446.102, 500.072 446.785, 497.105 447.583 M 499.005 461.610 C 496.533 462.507, 492.642 464.526, 490.359 466.097 C 488.076 467.668, 484.809 470.855, 483.100 473.179 C 481.391 475.503, 479.066 479.881, 477.933 482.909 C 476.470 486.818, 475.753 491.582, 475.459 499.349 C 475.163 507.141, 474.582 510.989, 473.437 512.736 C 472.554 514.084, 469.844 516.066, 467.416 517.140 C 463.926 518.684, 463 519.608, 463 521.547 C 463 523.225, 463.553 523.993, 464.750 523.978 C 465.712 523.966, 468.319 523.130, 470.541 522.120 C 472.764 521.111, 475.802 518.836, 477.292 517.065 C 478.782 515.295, 480.199 512.868, 480.441 511.673 C 480.683 510.478, 481.102 505, 481.372 499.500 C 481.642 494, 482.593 487.415, 483.486 484.867 C 484.378 482.318, 486.697 478.378, 488.638 476.110 C 490.580 473.842, 494.215 470.786, 496.717 469.320 C 500.265 467.241, 502.944 466.560, 508.883 466.229 C 514.922 465.892, 517.648 466.238, 522.043 467.896 C 525.180 469.081, 529.467 471.796, 531.922 474.155 C 534.307 476.447, 537.436 480.837, 538.876 483.911 C 541.047 488.545, 541.553 491.243, 541.837 499.702 C 542.078 506.876, 542.594 510.248, 543.577 511.064 C 544.346 511.702, 545.712 511.941, 546.612 511.595 C 548.032 511.050, 548.193 509.467, 547.819 499.696 C 547.435 489.671, 547.043 487.689, 544.269 481.762 C 542.554 478.097, 539.180 473.128, 536.771 470.718 C 534.362 468.309, 529.752 465.047, 526.526 463.469 C 521.729 461.122, 519.100 460.543, 512.081 460.290 C 505.992 460.069, 502.195 460.453, 499.005 461.610 M 503.500 475.061 C 501.850 475.545, 498.871 477.289, 496.880 478.936 C 494.890 480.583, 492.438 483.634, 491.432 485.715 C 490.114 488.441, 489.421 492.997, 488.952 502 C 488.439 511.872, 487.856 515.373, 486.180 518.653 C 485.013 520.938, 482.357 524.210, 480.279 525.925 C 478.201 527.639, 474.250 529.882, 471.500 530.907 C 468.750 531.933, 466.388 533.386, 466.251 534.136 C 466.114 534.886, 466.423 536.154, 466.936 536.953 C 467.744 538.212, 468.644 538.162, 473.644 536.586 C 478.214 535.146, 480.688 533.485, 485.496 528.633 C 489.328 524.765, 492.038 521.022, 492.833 518.500 C 493.527 516.300, 494.366 509.178, 494.698 502.674 C 495.196 492.921, 495.673 490.297, 497.424 487.698 C 498.592 485.965, 501.112 483.485, 503.024 482.185 C 505.898 480.232, 507.464 479.890, 512.065 480.212 C 515.836 480.475, 518.695 481.359, 520.931 482.951 C 522.765 484.257, 525.287 487.567, 526.606 490.401 C 528.526 494.525, 528.982 497.157, 528.990 504.162 C 528.996 508.926, 528.353 516.203, 527.563 520.333 C 526.773 524.464, 524.905 530.916, 523.412 534.671 C 521.920 538.427, 519.245 543.750, 517.468 546.500 C 515.692 549.250, 512.160 553.506, 509.619 555.958 C 507.079 558.410, 505 561.237, 505 562.240 C 505 563.242, 505.680 564.324, 506.511 564.643 C 507.401 564.984, 509.838 563.734, 512.440 561.602 C 514.870 559.611, 518.942 554.848, 521.489 551.017 C 524.035 547.186, 527.271 541.228, 528.679 537.776 C 530.088 534.324, 532.080 527.450, 533.107 522.500 C 534.134 517.550, 534.980 509.644, 534.987 504.932 C 534.995 499.929, 534.330 494.103, 533.389 490.932 C 532.230 487.023, 530.478 484.200, 527.139 480.863 C 524.271 477.996, 520.973 475.803, 518.500 475.118 C 516.300 474.509, 512.700 474.049, 510.500 474.096 C 508.300 474.142, 505.150 474.577, 503.500 475.061 M 504.964 490.036 C 503.843 491.157, 503.195 492.507, 503.523 493.036 C 503.850 493.566, 505.805 494, 507.868 494 C 509.930 494, 512.491 494.641, 513.559 495.425 C 515.263 496.676, 515.490 498.052, 515.421 506.675 C 515.371 512.918, 514.699 518.676, 513.579 522.470 C 512.610 525.753, 510.904 530.253, 509.789 532.470 C 508.674 534.686, 506.170 538.609, 504.224 541.187 C 502.278 543.764, 497.607 548.170, 493.843 550.977 C 490.079 553.785, 487 556.458, 487 556.919 C 487 557.379, 487.710 558.344, 488.577 559.064 C 489.893 560.156, 490.760 560.052, 493.827 558.436 C 495.847 557.371, 500.699 553.323, 504.608 549.440 C 509.490 544.592, 512.666 540.363, 514.748 535.940 C 516.416 532.398, 518.570 526.350, 519.536 522.500 C 520.540 518.497, 521.330 511.433, 521.380 506 C 521.448 498.734, 521.059 495.743, 519.724 493.280 C 518.764 491.508, 517.114 489.596, 516.055 489.030 C 514.997 488.463, 512.527 488, 510.566 488 C 508.312 488, 506.251 488.749, 504.964 490.036 M 503.396 500.765 C 502.789 501.169, 502.045 505.100, 501.743 509.500 C 501.439 513.919, 500.240 520.028, 499.063 523.147 C 497.892 526.253, 495.159 530.810, 492.991 533.273 C 490.506 536.096, 486.055 539.309, 480.951 541.965 C 475.079 545.020, 473.011 546.587, 473.427 547.670 C 473.742 548.492, 474 549.352, 474 549.582 C 474 549.812, 475.175 550, 476.610 550 C 478.046 550, 481.858 548.594, 485.083 546.875 C 488.308 545.156, 493.233 541.332, 496.027 538.378 C 498.822 535.423, 502.244 530.525, 503.631 527.494 C 505.019 524.463, 506.561 519.175, 507.057 515.742 C 507.554 512.309, 507.969 507.636, 507.980 505.357 C 507.994 502.488, 507.514 501.027, 506.418 500.607 C 505.548 500.273, 504.761 500.007, 504.668 500.015 C 504.576 500.024, 504.003 500.361, 503.396 500.765 M 555.641 513.772 C 555.339 514.260, 554.631 517.548, 554.067 521.079 C 553.503 524.611, 552.348 529.832, 551.502 532.683 C 550.655 535.533, 549.098 539.795, 548.042 542.154 C 546.656 545.250, 546.418 546.798, 547.184 547.721 C 547.767 548.425, 549.034 549, 549.999 549 C 551.143 549, 552.478 547.316, 553.836 544.159 C 554.982 541.496, 556.823 535.984, 557.928 531.909 C 559.033 527.834, 560.063 522.025, 560.218 519 C 560.473 514.025, 560.294 513.471, 558.344 513.193 C 557.159 513.024, 555.942 513.285, 555.641 513.772 M 541.649 520.759 C 541.391 521.177, 540.424 524.435, 539.500 528 C 538.576 531.565, 536.798 536.997, 535.549 540.072 C 534.299 543.147, 531.640 548.223, 529.639 551.351 C 527.637 554.479, 526 557.464, 526 557.984 C 526 558.504, 526.909 559.416, 528.021 560.011 C 529.132 560.606, 530.500 560.809, 531.061 560.462 C 531.622 560.116, 533.229 558.014, 534.632 555.791 C 536.035 553.569, 538.749 548.094, 540.662 543.625 C 542.576 539.156, 544.804 532.645, 545.615 529.155 C 546.743 524.294, 546.815 522.482, 545.921 521.405 C 545.280 520.632, 544.162 520, 543.437 520 C 542.711 520, 541.907 520.342, 541.649 520.759 M 525.387 644.284 C 522.558 646.877, 521.695 648.527, 521.290 652.119 C 520.935 655.266, 521.296 657.672, 522.460 659.922 C 523.565 662.060, 525.677 663.854, 528.620 665.156 C 531.764 666.547, 534.048 666.929, 536.285 666.437 C 538.037 666.053, 540.451 665.095, 541.649 664.310 C 542.847 663.525, 544.541 661.379, 545.414 659.540 C 546.286 657.702, 546.998 654.916, 546.996 653.349 C 546.994 651.782, 546.114 649.059, 545.040 647.299 C 543.967 645.538, 541.741 643.400, 540.094 642.549 C 538.447 641.697, 535.270 641, 533.035 641 C 529.835 641, 528.208 641.698, 525.387 644.284" stroke="none" fill="#f0f0f0" fill-rule="evenodd"/></svg>